HIERARCHY
ROOT Hips
{
	OFFSET 0.000000 0.000000 0.000000
	CHANNELS 6 Xposition Yposition Zposition Xrotation Yrotation Zrotation
	JOINT LeftUpLeg_virtual
	{
		OFFSET 0.000000 0.000000 0.000000
		CHANNELS 3 Xrotation Yrotation Zrotation
		JOINT LeftUpLeg
		{
			OFFSET 13.026900 -6.336304 -1.092800
			CHANNELS 3 Xrotation Yrotation Zrotation
			JOINT LeftLeg
			{
				OFFSET 0.524474 -46.096886 9.782700
				CHANNELS 3 Xrotation Yrotation Zrotation
				JOINT LeftFoot
				{
					OFFSET -0.524474 -53.427422 -12.948200
					CHANNELS 3 Xrotation Yrotation Zrotation
					JOINT LeftToeBase
					{
						OFFSET 0.192200 -14.009700 16.364100
						CHANNELS 3 Xrotation Yrotation Zrotation
						JOINT LeftToe_End
						{
							OFFSET -1.784700 -0.561700 9.474800
							CHANNELS 3 Xrotation Yrotation Zrotation
							End Site
							{
								OFFSET 0 0 0
							}
						}
					}
				}
			}
		}
	}
	JOINT RightUpLeg_virtual
	{
		OFFSET 0.000000 0.000000 0.000000
		CHANNELS 3 Xrotation Yrotation Zrotation
		JOINT RightUpLeg
		{
			OFFSET -12.883000 -6.336304 -1.092800
			CHANNELS 3 Xrotation Yrotation Zrotation
			JOINT RightLeg
			{
				OFFSET -0.524587 -46.096825 9.782800
				CHANNELS 3 Xrotation Yrotation Zrotation
				JOINT RightFoot
				{
					OFFSET 0.524587 -53.427383 -12.948300
					CHANNELS 3 Xrotation Yrotation Zrotation
					JOINT RightToeBase
					{
						OFFSET -0.192200 -14.009700 16.364100
						CHANNELS 3 Xrotation Yrotation Zrotation
						JOINT RightToe_End
						{
							OFFSET 1.784700 -0.561700 9.474800
							CHANNELS 3 Xrotation Yrotation Zrotation
							End Site
							{
								OFFSET 0 0 0
							}
						}
					}
				}
			}
		}
	}
	JOINT Spine_virtual
	{
		OFFSET 0.000000 0.000000 0.000000
		CHANNELS 3 Xrotation Yrotation Zrotation
		JOINT Spine
		{
			OFFSET 0.072000 7.257294 -0.789700
			CHANNELS 3 Xrotation Yrotation Zrotation
			JOINT Spine1
			{
				OFFSET 0.000000 12.508769 -0.658067
				CHANNELS 3 Xrotation Yrotation Zrotation
				JOINT Spine1_split
				{
					OFFSET 0.000000 12.508769 -0.658067
					CHANNELS 3 Xrotation Yrotation Zrotation
					JOINT Spine2
					{
						OFFSET 0.000000 12.508769 -0.658067
						CHANNELS 3 Xrotation Yrotation Zrotation
						JOINT Neck_virtual
						{
							OFFSET 0.000000 0.000000 0.000000
							CHANNELS 3 Xrotation Yrotation Zrotation
							JOINT Neck
							{
								OFFSET 0.000000 14.033295 7.520400
								CHANNELS 3 Xrotation Yrotation Zrotation
								JOINT Head
								{
									OFFSET 0.000000 8.198502 5.703100
									CHANNELS 3 Xrotation Yrotation Zrotation
									JOINT HeadTop_End
									{
										OFFSET 0.000000 17.760803 13.332701
										CHANNELS 3 Xrotation Yrotation Zrotation
										End Site
										{
											OFFSET 0 0 0
										}
									}
								}
							}
						}
						JOINT LeftShoulder_virtual
						{
							OFFSET 0.000000 0.000000 0.000000
							CHANNELS 3 Xrotation Yrotation Zrotation
							JOINT LeftShoulder
							{
								OFFSET 6.292450 5.785301 -0.669000
								CHANNELS 3 Xrotation Yrotation Zrotation
								JOINT LeftShoulder_split
								{
									OFFSET 6.292450 5.785301 -0.669000
									CHANNELS 3 Xrotation Yrotation Zrotation
									JOINT LeftArm
									{
										OFFSET 13.907140 -6.093903 1.965100
										CHANNELS 3 Xrotation Yrotation Zrotation
										JOINT LeftForeArm
										{
											OFFSET 34.140198 0.000000 0.000000
											CHANNELS 3 Xrotation Yrotation Zrotation
											JOINT LeftHand
											{
												OFFSET 40.960209 0.000000 0.000000
												CHANNELS 3 Xrotation Yrotation Zrotation
												End Site
												{
													OFFSET 0 0 0
												}
											}
										}
									}
								}
							}
						}
						JOINT RightShoulder_virtual
						{
							OFFSET 0.000000 0.000000 0.000000
							CHANNELS 3 Xrotation Yrotation Zrotation
							JOINT RightShoulder
							{
								OFFSET -6.292450 5.785301 -0.669000
								CHANNELS 3 Xrotation Yrotation Zrotation
								JOINT RightShoulder_split
								{
									OFFSET -6.292450 5.785301 -0.669000
									CHANNELS 3 Xrotation Yrotation Zrotation
									JOINT RightArm
									{
										OFFSET -13.907140 -6.093903 1.965100
										CHANNELS 3 Xrotation Yrotation Zrotation
										JOINT RightForeArm
										{
											OFFSET -34.140198 0.000000 0.000000
											CHANNELS 3 Xrotation Yrotation Zrotation
											JOINT RightHand
											{
												OFFSET -40.960209 0.000000 0.000000
												CHANNELS 3 Xrotation Yrotation Zrotation
												End Site
												{
													OFFSET 0 0 0
												}
											}
										}
									}
								}
							}
						}
					}
				}
			}
		}
	}
}
MOTION
Frames: 4
Frame Time: 0.03333333
1.383313 99.968628 29.163521 0.000000 0.000000 0.000000 9.484101 -52.391929 3.833255 -6.604559 12.297474 -8.249973 47.497364 7.380554 -12.192023 -27.842730 -7.939185 19.054565 -4.872480 -10.561713 0.065438 0.000000 0.000000 0.000000 8.906687 -50.556572 3.452333 -52.353660 -4.196178 3.688623 28.557357 4.946432 -4.683476 8.310642 1.250952 12.283386 1.587259 -2.694590 -0.054194 0.000000 0.000000 0.000000 6.383501 -45.349161 2.249258 16.486584 -6.649469 1.917405 5.565794 -5.663895 2.368067 -0.571745 -2.065045 0.746498 0.000000 0.000000 0.000000 -3.427851 -5.096778 1.342082 0.416044 39.600897 -10.134782 -0.115736 27.996136 -7.252488 0.000000 0.000000 0.000000 -2.215008 -6.432338 1.866076 1.085079 -2.510861 -2.254208 -2.002458 2.260320 -2.538021 -0.202478 -3.337191 -27.734898 -0.532254 -27.028546 -1.835378 0.000000 0.000000 0.000000 -4.062103 -6.077656 2.738603 10.004589 -12.360507 3.596618 0.661561 1.874595 -0.712961 1.749512 6.005663 77.723912 -6.635956 11.778528 6.089715 0.000000 0.000000 0.000000 
3.316114 100.651237 26.693377 0.000000 0.000000 0.000000 10.092068 -55.817604 4.601931 -7.185110 11.139034 -9.976805 47.016475 6.824253 -10.997587 -30.150736 -9.799315 18.546902 -4.242575 -11.100563 0.964923 0.000000 0.000000 0.000000 8.450589 -52.880257 3.658974 -50.892160 -3.758062 2.613421 30.866933 4.538066 -4.857474 9.250617 2.196668 12.258915 2.954132 -2.086813 0.374804 0.000000 0.000000 0.000000 6.636336 -48.438633 2.991696 16.861539 -6.543844 1.071264 4.736940 -5.123758 2.385775 -0.528480 -1.714994 0.546379 0.000000 0.000000 0.000000 -4.513427 -4.448157 1.346468 1.127564 40.000439 -10.527807 0.916906 27.816709 -7.863420 0.000000 0.000000 0.000000 -3.078979 -5.825010 2.002603 0.884961 -1.740966 -2.210354 -0.493504 3.436413 -2.770673 -5.278287 -4.601027 -28.332665 -0.100046 -31.613350 -1.995496 0.000000 0.000000 0.000000 -5.018805 -5.525692 2.726790 10.415914 -11.247623 3.708456 -0.216800 2.496076 -1.246832 3.413583 11.473120 74.414877 -5.127560 15.310940 7.579294 0.000000 0.000000 0.000000 
4.833344 101.236710 24.343845 0.000000 0.000000 0.000000 11.219249 -59.258735 6.298955 -9.370263 10.865958 -10.725935 48.625657 6.981270 -9.738321 -30.376057 -10.959280 16.775687 -4.095942 -11.800149 1.296735 0.000000 0.000000 0.000000 7.962391 -55.524267 4.304673 -49.536288 -2.954987 1.878563 34.174363 4.155449 -4.939781 11.505137 3.156139 12.313956 3.034391 -1.615175 1.003134 0.000000 0.000000 0.000000 6.754121 -51.460363 3.889060 17.447529 -6.253865 0.726415 3.996170 -4.477975 2.364080 -0.265290 -1.447869 0.677771 0.000000 0.000000 0.000000 -5.416773 -3.773094 1.348481 2.708668 40.206793 -11.484377 1.525066 27.341444 -8.260820 0.000000 0.000000 0.000000 -3.693395 -5.134795 2.036074 0.773615 -1.107198 -2.586752 1.166576 4.038349 -2.536912 -8.728381 -5.642421 -29.113152 -0.320652 -35.252529 -2.408275 0.000000 0.000000 0.000000 -5.653208 -4.853229 2.627954 10.705463 -9.850379 4.384494 -1.110531 2.636896 -1.718649 5.508603 15.037042 70.410487 -3.135924 19.829550 8.801699 0.000000 0.000000 0.000000 
5.906996 101.897682 21.934231 0.000000 0.000000 0.000000 12.493473 -62.511155 8.596474 -12.306711 10.915473 -11.054349 50.377341 7.933340 -8.073180 -29.205472 -10.536450 13.386382 -2.301094 -12.417537 1.120349 0.000000 0.000000 0.000000 7.223748 -58.352683 5.049557 -48.174926 -2.114640 1.296385 37.441762 3.539365 -4.915911 13.801630 3.795183 11.858486 2.925514 -1.245462 1.851292 0.000000 0.000000 0.000000 6.474615 -54.242473 4.591552 18.103208 -5.756301 0.813641 3.337952 -3.737471 2.226563 -0.126363 -1.777966 0.879018 0.000000 0.000000 0.000000 -6.045532 -3.085970 1.298697 4.937923 40.244530 -12.726228 1.871578 26.652771 -8.566945 0.000000 0.000000 0.000000 -4.097022 -4.394051 1.909821 0.713444 -0.597806 -3.423772 2.618856 4.018317 -2.029746 -10.551964 -6.754779 -29.802455 -1.260886 -38.596518 -3.110786 0.000000 0.000000 0.000000 -5.988004 -4.114468 2.384231 10.803730 -8.279315 5.460666 -1.808884 2.331812 -2.439144 7.091800 16.390354 65.961848 -0.904973 24.505689 9.519735 0.000000 0.000000 0.000000 
